<?xml version="1.0" encoding="UTF-8"?><svg id="Calque_1" xmlns="http://www.w3.org/2000/svg" viewBox="0 0 553.10726 475.52346"><defs><style>.cls-1{fill:#94734c;}.cls-2{fill:#a1be57;}.cls-3{fill:#6ba44d;}.cls-4{fill:#d48d2d;}</style></defs><path class="cls-3" d="M264.59514,235.83278c.51736-.10674,.86302-.6103,.92355-1.69809,1.86646-33.54649,.66312-67.72706,9.73201-100.07835,6.0007,31.75581,7.12903,64.47714,17.66867,95.27805,.66008,1.92901,1.43839,3.96165,3.08146,5.16852,7.6616,5.62762,21.52783-22.52564,23.74682-26.98657,23.61827-47.48085,25.97989-104.52825-5.06789-149.33373-7.27327-10.49616-15.70508-20.22774-23.93741-29.97096-1.78942-2.11776-25.49853-28.7728-25.82227-28.20264-14.4306,25.41488-25.83848,53.40675-33.45877,81.57662-5.07617,18.76504-9.39674,39.84286-6.79921,59.33905,3.61908,27.16344,13.04754,54.63673,25.70145,78.9159,1.94231,3.72656,4.3772,7.22544,7.17332,10.36152,.84626,.94915,5.13664,6.02714,7.05827,5.63067Z"/><path class="cls-4" d="M356.3927,179.41389c.31198,.29162,.80569,.28466,1.55186-.18322,23.01141-14.42923,45.00819-31.18049,70.59322-40.29827-18.15684,18.78544-39.22556,34.80595-54.6332,56.14122-.96495,1.33619-1.94311,2.7988-1.97256,4.44661-.13733,7.68375,24.9167,3.69195,28.89675,3.07388,42.36259-6.57864,81.11533-31.6524,96.19157-73.06063,3.53177-9.70032,6.01807-19.80831,8.60519-29.79008,.5623-2.16965,7.08562-30.26104,6.55818-30.20852-23.51023,2.34092-47.31007,7.87983-69.45917,16.00159-14.75437,5.41022-30.68238,12.39882-42.33686,23.21488-16.23781,15.06969-29.96803,34.1181-40.08441,53.80409-1.5527,3.02162-2.72518,6.26204-3.48957,9.5715-.23135,1.00162-1.57978,6.20384-.42101,7.28699Z"/><path class="cls-2" d="M198.147,178.71209c-.26063,.3383-.74894,.4114-1.56105,.07054-25.04461-10.51168-49.46406-23.47906-76.18804-28.33258,20.95969,15.59664,44.34498,27.99323,63.00475,46.5513,1.16863,1.16226,2.37076,2.44713,2.66671,4.06841,1.38002,7.56005-23.98974,7.67883-28.01736,7.71355-42.86877,.36947-85.1709-18.09665-106.75476-56.51634-5.05625-9.00022-9.14686-18.57206-13.31651-28.00302-.90628-2.04994-11.89329-28.71387-11.36431-28.74747,23.57896-1.49782,47.96167,.11322,71.13376,4.54037,15.43583,2.9491,32.28544,7.26565,45.53786,16.05128,18.46418,12.24076,35.09828,28.81386,48.26952,46.60143,2.0216,2.73024,3.70343,5.73798,4.99374,8.87994,.39052,.95093,2.56372,5.86606,1.59569,7.12259Z"/><path class="cls-4" d="M211.99925,130.74069c-.19132,.0582-.39741-.0466-.61451-.39726-6.69516-10.81387-12.48465-22.39442-21.35769-31.50673,3.75562,11.6432,9.3058,22.72507,11.37963,34.87276,.12988,.76079,.23922,1.57744-.08844,2.27617-1.52788,3.25817-11.2355-3.58987-12.78095-4.671-16.44939-11.50719-27.56477-30.0438-25.35706-50.56069,.51718-4.8063,1.55794-9.56822,2.53028-14.2979,.21137-1.02804,3.26621-14.18229,3.47708-14.05137,9.39936,5.83553,18.26053,13.07509,25.89482,21.05969,5.0855,5.31885,10.33862,11.54336,13.00555,18.49485,3.71574,9.68529,5.55638,20.52556,5.74639,30.88809,.02914,1.59054-.14671,3.19459-.50833,4.74344-.10945,.46877-.61616,2.93376-1.32676,3.14994Z"/><path class="cls-3" d="M147.70929,83.86113c-.09427,.10003-.253,.10786-.50221-.02723-7.68562-4.1659-15.09265-9.09835-23.49671-11.5057,6.21505,5.66411,13.30908,10.38074,18.69301,16.91991,.33719,.40954,.68119,.85941,.72423,1.38811,.2007,2.46532-7.92833,1.69368-9.21939,1.57626-11.26077-1.02421-22.50641-6.36933-28.93356-15.92737-2.788-4.14613-4.53904-8.87183-5.9496-13.63572-.65108-2.19891-1.19742-4.41225-2.01321-6.5332-.14862-.38638-1.12359-4.35427-1.58382-4.37475,21.06289,.93709,39.45356,7.97017,50.68157,26.78421,.56033,.93894,1.00298,1.95591,1.31596,3.00338,.09472,.31702,.63388,1.96056,.28374,2.3321Z"/><path class="cls-2" d="M222.34468,69.73474c-.15675-.01344-.27662-.15026-.33263-.46985-1.7273-9.85586-2.56894-20.0068-6.38446-29.25684-.66212,9.6019,.15057,19.31864-1.88737,28.79716-.12763,.59362-.2866,1.22204-.73025,1.63653-2.06873,1.93277-7.15596-5.90765-7.96851-7.14921-8.64851-13.21482-11.34561-30.00364-3.7331-44.34246,1.78331-3.35902,3.93604-6.53251,6.02937-9.70245,.45502-.68901,6.53304-9.40279,6.64876-9.24551,5.15821,7.01078,9.51274,14.8896,12.75335,22.95376,2.15869,5.37185,4.17495,11.45416,4.08979,17.3111-.11866,8.16028-1.94456,16.61573-4.83629,24.23954-.44387,1.17017-1.0414,2.29025-1.75847,3.3157-.21703,.31036-1.30798,1.96247-1.89019,1.91254Z"/><path class="cls-3" d="M353.74781,119.68965c.15712,.00801,.29449-.11122,.39347-.42021,3.05237-9.52914,5.26746-19.47114,10.30619-28.11595-.65062,9.60269-2.77796,19.11846-2.04875,28.78613,.04567,.60547,.11765,1.24967,.50077,1.72068,1.78648,2.1963,7.89328-4.87895,8.86722-5.9984,10.36627-11.91506,15.32282-28.18071,9.73227-43.42203-1.30964-3.57044-3.01052-7.00734-4.65303-10.43265-.35703-.74452-5.19279-10.20432-5.32884-10.06424-6.06422,6.24367-11.45036,13.45666-15.75815,21.00484-2.86959,5.02814-5.69474,10.77952-6.40735,16.59356-.99285,8.10053-.33451,16.72579,1.49291,24.67217,.28051,1.21968,.72006,2.41066,1.29093,3.52414,.17278,.337,1.02877,2.1222,1.61236,2.15196Z"/><path class="cls-2" d="M447.07559,269.9948c.01949,.15611,.16084,.27061,.48235,.31422,9.91525,1.34515,20.09113,1.7939,29.48171,5.24912-9.56914,1.03267-19.31003,.59607-28.70272,2.99877-.58825,.15048-1.21005,.33361-1.60709,.79294-1.85139,2.14187,6.17976,6.92233,7.45179,7.68629,13.53915,8.13139,30.41966,10.17771,44.4536,2.01679,3.2876-1.91178,6.37553-4.18554,9.46221-6.39979,.67091-.48131,9.14331-6.89151,8.98168-7.00107-7.20487-4.88344-15.24608-8.93026-23.42944-11.85682-5.45126-1.9495-11.60694-3.72921-17.45621-3.41778-8.1496,.43391-16.52818,2.58519-24.03455,5.76936-1.15214,.48876-2.2483,1.12912-3.24527,1.88528-.30174,.22886-1.91046,1.38284-1.83807,1.96268Z"/><path class="cls-2" d="M481.28517,197.46768c.14903,.13334,.38009,.12505,.72465-.10161,10.62573-6.98991,20.75276-15.05654,32.63753-19.58612-8.30859,8.97977-18.00859,16.69483-25.00411,26.84026-.43812,.63539-.88112,1.3301-.8781,2.10183,.0141,3.59847,11.70178,1.47435,13.55937,1.14427,14.96499-2.65912,28.86268-11.28621,37.80165-23.74927,7.95522-11.09147,11.18101-25.4768,12.89528-38.8627,.00488-.03809,.11714-.82152,.07728-.8167-10.98258,1.33578-22.06812,4.17167-32.35451,8.1999-6.85216,2.68336-14.23766,6.11762-19.58343,11.30013-7.44809,7.22064-13.68164,16.27836-18.21684,25.59769-.69608,1.43043-1.21192,2.95942-1.53601,4.51656-.09809,.47128-.67629,2.92049-.12275,3.41575Z"/><path class="cls-4" d="M152.0452,299.00566c.03844,.19097-.08255,.38094-.44295,.55847-11.11441,5.47484-22.88704,9.99949-32.5564,17.74594,11.64216-2.54674,22.90877-6.88624,34.88195-7.75491,.74986-.0544,1.55195-.08364,2.19862,.29974,3.01543,1.78773-4.537,10.55626-5.73054,11.95307-12.7037,14.86721-31.72153,23.90177-51.40683,19.83229-4.61149-.95332-9.13073-2.41012-13.62513-3.79755-.9769-.30159-13.44385-4.50023-13.29709-4.69238,6.54173-8.56484,14.39419-16.47586,22.85368-23.12726,5.6352-4.43076,12.16426-8.9389,19.15505-10.87116,9.74005-2.69215,20.42366-3.45765,30.48886-2.66763,1.5449,.12129,3.08363,.44259,4.55138,.93883,.44422,.15019,2.7866,.87324,2.92939,1.58255Z"/><path class="cls-3" d="M403.58255,306.97093c-.01271,.18543,.1253,.35016,.48826,.47345,11.19322,3.8022,22.89139,6.6239,32.99901,12.75421-11.32965-.96667-22.52616-3.67591-33.96103-3.01403-.71615,.04145-1.47859,.11319-2.04286,.55602-2.63121,2.06494,5.60034,9.42453,6.90258,10.59808,13.86064,12.4909,32.972,18.68139,51.09099,12.3921,4.24457-1.47333,8.33947-3.41156,12.41946-5.28107,.88682-.40638,12.16089-5.92338,11.99823-6.08697-7.25014-7.29213-15.65927-13.80328-24.4866-19.04756-5.88023-3.49342-12.61569-6.94927-19.46876-7.911-9.54818-1.33994-19.75026-.74025-29.17455,1.25441-1.44652,.30618-2.86242,.80083-4.18949,1.45218-.40164,.19714-2.52805,1.17144-2.57524,1.86018Z"/><path class="cls-3" d="M111.62861,269.2357c-.01569,.15654-.15421,.27443-.47457,.32586-9.87962,1.58576-20.04159,2.28171-29.34541,5.96416,9.59141,.79977,19.31882,.12653,28.76712,2.30022,.59173,.13613,1.2178,.3041,1.62589,.75365,1.9029,2.09623-6.00968,7.07049-7.26277,7.86515-13.33751,8.45808-30.16329,10.91409-44.39144,3.09671-3.3331-1.83131-6.47538-4.02933-9.61497-6.16791-.68241-.46486-9.30812-6.66724-9.1492-6.78069,7.08405-5.05712,15.02451-9.2982,23.13432-12.42281,5.40226-2.08142,11.51287-4.01023,17.36798-3.84107,8.15774,.23569,16.58613,2.18269,24.16768,5.18346,1.16368,.46061,2.27508,1.07414,3.29014,1.80584,.30721,.22145,1.94351,1.336,1.88523,1.91743Z"/><path class="cls-2" d="M421.22519,85.69664c-.05334-.07421-.03833-.17881,.08144-.32436,3.69359-4.48854,7.85221-8.69804,10.48902-13.87847-4.48509,3.3387-8.46316,7.37127-13.41406,10.05653-.31007,.16817-.64733,.33568-.99788,.29675-1.63465-.18154-.1004-5.38982,.13992-6.21764,2.55791-8.8111,8.94244-16.34887,18.14476-18.41339,2.15574-.48364,4.36934-.73419,6.55892-1.00961,.47593-.05986,6.61722-.67416,6.59161-.56366-1.14152,4.92587-2.96975,9.82553-5.30093,14.30399-1.55289,2.98328-3.47297,6.17238-6.08826,8.34947-3.6438,3.03327-8.06332,5.42521-12.51908,7.03262-.68392,.24671-1.40385,.40672-2.12724,.47821-.21894,.02164-1.36009,.1652-1.55821-.11045Z"/><path class="cls-4" d="M483.74484,248.11065c-.02506-.08789,.02449-.18123,.18647-.27762,4.99536-2.97254,10.33378-5.52506,14.56908-9.50648-5.35071,1.62261-10.45933,4.06978-16.02705,4.91982-.3487,.05324-.72276,.09664-1.03942-.05871-1.47659-.72437,1.73074-5.10537,2.23719-5.8029,5.39057-7.4243,13.95046-12.35465,23.3082-11.18092,2.19215,.27496,4.35981,.78882,6.51329,1.27115,.46808,.10485,6.45454,1.60652,6.39303,1.70183-2.74217,4.24827-6.1216,8.23932-9.83163,11.66375-2.47139,2.28114-5.35799,4.6316-8.556,5.79443-4.45569,1.62012-9.4241,2.37411-14.16093,2.37765-.72705,.00053-1.45863-.09271-2.1635-.27041-.21333-.05378-1.33567-.30514-1.42874-.6316Z"/><path class="cls-4" d="M340.96193,63.05273c-.08992-.01633-.15179-.102-.16674-.2899-.46109-5.79456-.39383-11.71145-2.09574-17.26961-.90701,5.51727-.96731,11.18145-2.66332,16.55227-.10622,.33636-.23246,.69114-.51167,.90666-1.30197,1.00494-3.81633-3.80735-4.21851-4.56977-4.28075-8.11502-4.92434-17.9723,.26107-25.8499,1.21474-1.84541,2.63301-3.56335,4.01673-5.28249,.30077-.37367,4.29168-5.08168,4.35003-4.9844,2.60069,4.33632,4.68918,9.13083,6.1233,13.97173,.95532,3.22471,1.78949,6.85256,1.42057,10.23536-.51401,4.71315-2.03154,9.50383-4.12011,13.75535-.32059,.65256-.72731,1.26777-1.19801,1.82171-.14246,.16765-.8636,1.06364-1.1976,1.00298Z"/><path class="cls-3" d="M186.57171,40.98523c-.08661,.02919-.18218-.01589-.28612-.17313-3.20547-4.84918-6.00762-10.0609-10.1849-14.10316,1.87386,5.26798,4.55991,10.25514,5.67233,15.77643,.06967,.34579,.13071,.71738-.00948,1.04103-.65372,1.5092-5.18151-1.48734-5.90221-1.96024-7.67094-5.0334-13.00063-13.35052-12.2708-22.7533,.17097-2.2027,.58174-4.39224,.96168-6.56612,.08259-.47251,1.29945-6.5233,1.39756-6.46636,4.37321,2.53817,8.51963,5.72506,12.11569,9.26898,2.39548,2.36074,4.87983,5.13294,6.19261,8.27237,1.82905,4.37408,2.81718,9.30127,3.04475,14.03263,.03492,.72621-.02362,1.46139-.16778,2.17387-.04363,.21564-.24163,1.34861-.56332,1.45702Z"/><path class="cls-2" d="M92.91252,239.03082c-.03909,.08262-.13787,.12015-.32321,.08588-5.71597-1.05701-11.4131-2.65601-17.22245-2.45333,5.09346,2.30643,10.54833,3.83319,15.29578,6.86367,.29732,.18979,.60724,.4037,.743,.72924,.63302,1.51799-4.6666,2.69872-5.50722,2.88948-8.94739,2.03043-18.63447,.09636-24.8983-6.95412-1.46737-1.65165-2.75886-3.46683-4.06046-5.24895-.28291-.38737-3.79524-5.46244-3.68616-5.49356,4.86232-1.3875,10.03435-2.16154,15.08154-2.29154,3.36213-.0866,7.08219,.04833,10.25368,1.28168,4.41873,1.71839,8.65216,4.42609,12.2168,7.54551,.54713,.47881,1.03585,1.03113,1.44882,1.62935,.12499,.18105,.80336,1.10984,.65819,1.41669Z"/><path class="cls-3" d="M178.33477,312.13758c.06241,.06677,.06091,.17243-.03924,.33212-3.08842,4.92455-6.67377,9.63192-8.62551,15.10735,4.02064-3.88554,7.44959-8.3943,12.01588-11.69143,.28598-.20649,.59901-.41581,.95167-.42209,1.64444-.02927,.78975,5.33259,.65741,6.18437-1.40858,9.06611-6.77533,17.35937-15.63752,20.58527-2.07606,.7557-4.23936,1.28765-6.37564,1.84118-.46435,.12031-6.47641,1.51596-6.46516,1.40308,.50135-5.03149,1.68713-10.12492,3.42564-14.86502,1.15809-3.15757,2.654-6.56628,4.96897-9.06035,3.22538-3.4749,7.30223-6.41307,11.51548-8.57781,.64669-.33225,1.34021-.58313,2.04849-.74667,.21437-.0495,1.32774-.338,1.55953-.08999Z"/><path class="cls-4" d="M368.10679,313.98339c.09042-.01334,.17646,.048,.25083,.2212,2.29324,5.34141,4.12518,10.96796,7.5181,15.68788-.90842-5.51704-2.66599-10.90198-2.78008-16.53306-.00715-.35266-.00122-.72919,.19423-1.02279,.91138-1.36909,4.83496,2.38398,5.46021,2.97737,6.65499,6.31581,10.42273,15.44731,8.03447,24.57097-.55948,2.13731-1.3526,4.21909-2.1126,6.29092-.1652,.45033-2.4374,6.18879-2.52383,6.11533-3.85287-3.27455-7.36734-7.14722-10.27679-11.27349-1.9381-2.74867-3.89058-5.91804-4.62489-9.24072-1.02308-4.62939-1.12038-9.65374-.50399-14.3503,.09462-.72087,.2828-1.43395,.55122-2.1095,.08124-.20446,.47731-1.28425,.81314-1.3338Z"/><path class="cls-1" d="M311.92264,361.77143c3.57995-16.69616,8.90182-33.03002,23.19628-43.69783,7.41108-5.53081,16.20302-8.85014,25.21077-10.69263,11.83523-2.42079,24.16343-3.2211,35.52806-7.54334,11.78115-4.48065,22.32227-11.88424,31.35956-20.59549,10.37628-10.00193,18.90145-21.70914,26.85743-33.6728,6.09825-9.17013,14.74713-18.24705,18.72107-28.64044,3.11079-8.13592,1.43575-11.24671-11.96548-4.30679-12.38984,6.41718-22.51495,19.37227-32.44792,28.87963-13.23675,12.66958-27.27845,24.94962-45.13301,30.57203-5.07116,1.59691-10.3524,2.58425-15.66296,2.87268-2.68006,.14556-5.37202,.26208-8.05499,.09332-3.58661-.22583-7.21846-.51163-10.70471-1.43291-.98823-.26115-4.08697-.77941-3.9848-2.07649,.09895-1.25623,3.20032-2.71746,4.12962-3.2642,6.22476-3.66226,12.23238-7.69348,17.98128-12.06496,5.38754-4.0967,11.22799-7.68684,16.36241-12.10635,5.98546-5.1507,11.32679-12.61159,13.06506-20.39881,.38559-1.7274,.57004-3.62089-.23978-5.19467-1.43862-2.79577-5.30595-3.30095-8.35087-2.51708-.8981,.2312-1.7608,.53522-2.5949,.8982-5.35798,2.33164-9.53606,7.09621-14.33802,10.62169-7.07656,5.19545-15.67828,7.75964-23.94798,10.70623-9.8865,3.52268-19.71293,7.80423-27.98836,14.37516-8.74716,6.9455-16.08056,15.62174-23.03791,24.29883-1.83202,2.28487-6.31168,7.95558-8.01927,10.37015-.17054,.24114,1.00631,2.52499,1.13701,2.78402,3.08719,6.11863,7.36016,11.41581,10.11786,17.74133,2.78485,6.38778,4.64614,13.13629,6.23553,19.90673,2.6448,11.26627,4.60774,22.67966,6.56902,34.0848Z"/><path class="cls-1" d="M186.72343,219.43494c5.35798,2.33164,9.53606,7.09621,14.33802,10.62169,7.07656,5.19545,15.67828,7.75964,23.94798,10.70623,9.8865,3.52268,19.71293,7.80423,27.98836,14.37516,8.74716,6.9455,16.08056,15.62174,23.03791,24.29883,9.06242,11.3025,16.81998,24.26428,21.12041,38.16798,5.52987,17.8786,7.56425,37.50904,11.08189,55.90457,6.50411,34.01336,13.08538,68.0117,19.64724,102.01405h-82.79492c8.26678-35.244,17.20755-74.3572,15.00067-110.65628-1.60676-26.42821-22.39184-49.59295-48.50248-54.93377-11.83523-2.42079-24.16343-3.2211-35.52806-7.54334-11.78115-4.48065-22.32227-11.88424-31.35956-20.59549-10.37628-10.00193-18.90145-21.70914-26.85743-33.6728-6.09825-9.17013-14.74713-18.24705-18.72107-28.64044-3.11079-8.13592-1.43575-11.24671,11.96548-4.30679,12.38984,6.41718,22.51495,19.37227,32.44792,28.87963,13.23675,12.66958,27.27845,24.94962,45.13301,30.57203,5.07116,1.59691,10.3524,2.58425,15.66296,2.87268,2.68006,.14556,5.37202,.26208,8.05499,.09332,3.58661-.22583,7.21846-.51163,10.70471-1.43291,.98823-.26115,4.08697-.77941,3.9848-2.07649-.09895-1.25623-3.20032-2.71746-4.12962-3.2642-6.22476-3.66226-12.23238-7.69348-17.98128-12.06496-5.38754-4.0967-11.22799-7.68684-16.36241-12.10635-5.98546-5.1507-11.32679-12.61159-13.06506-20.39881-.38559-1.7274-.57004-3.62089,.23978-5.19467,1.43862-2.79577,5.30595-3.30095,8.35087-2.51708,.8981,.2312,1.7608,.53522,2.5949,.8982Z"/><path class="cls-4" d="M71.77741,204.88868c-.05938,.1715-.12826,.34117-.20731,.50872-10.08426-7.91826-21.08245-14.67162-32.70609-20.08294,7.44294,7.75042,14.88589,15.50083,22.33476,23.25742,8.49566,8.85147-4.63224,7.76327-10.40975,6.73664-19.76504-3.51213-37.65136-15.64591-44.28689-35.18512-1.55445-4.5773-2.61531-9.33479-3.72464-14.03421-.24111-1.02147-3.00844-14.23919-2.76195-14.20921,29.8391,3.62925,58.00575,17.09864,70.69415,45.93874,.98276,2.23376,1.84987,4.81084,1.06773,7.06996Z"/><path class="cls-3" d="M402.45016,60.21866c-.10142-.0527-.14371-.1779-.09223-.40793,1.5878-7.09385,3.85204-14.13886,3.86998-21.40822-3.12013,6.25757-5.28278,13.0032-9.2916,18.79457-.25106,.3627-.53285,.74002-.94601,.89447-1.92658,.72021-3.1547-5.95781-3.35385-7.01724-2.11968-11.27628,.74957-23.29185,9.85295-30.79055,2.13256-1.75665,4.46127-3.28587,6.74914-4.82927,.4973-.33546,7.00355-4.48785,7.03736-4.35008,1.50694,6.14118,2.23278,12.64077,2.1596,18.95427-.04874,4.20567-.39105,8.84831-2.08042,12.7541-2.35376,5.44182-5.93519,10.60589-9.99994,14.91497-.62391,.66139-1.33695,1.24635-2.10382,1.73451-.2321,.14774-1.42446,.95214-1.80116,.75639Z"/><path class="cls-4" d="M224.47915,221.92035c-.08963,.01789-.17866-.03902-.26168-.20824-2.56022-5.2187-4.67413-10.7455-8.30121-15.28795,1.18604,5.46409,3.21347,10.75334,3.61196,16.37146,.02496,.35185,.03807,.72819-.1423,1.0313-.84103,1.4134-4.94925-2.13662-5.60369-2.69766-6.96563-5.97146-11.18998-14.90091-9.26579-24.1336,.45076-2.16285,1.13767-4.28204,1.79202-6.38963,.14224-.4581,2.12156-6.30405,2.2116-6.23505,4.01342,3.07567,7.71908,6.76581,10.83332,10.73979,2.07451,2.64722,4.18465,5.71389,5.08592,8.99522,1.2557,4.57178,1.60676,9.5848,1.22848,14.3065-.05807,.72473-.20998,1.44641-.44392,2.13466-.0708,.2083-.41181,1.30673-.74471,1.37319Z"/><path class="cls-2" d="M343.07143,230.1815c-.07564-.0513-.09756-.15468-.03525-.33257,1.92184-5.48599,4.37636-10.87017,5.06778-16.64179-3.06091,4.67908-5.40686,9.83496-9.13013,14.061-.23318,.26467-.49212,.53808-.83464,.62226-1.59717,.39252-1.95045-5.02553-2.00992-5.88548-.63301-9.15302,2.76503-18.42844,10.69342-23.53585,1.85731-1.19646,3.84921-2.19403,5.81-3.20667,.4262-.2201,5.98025-2.91182,5.99426-2.79925,.62473,5.01767,.59572,10.24722-.05052,15.25455-.43049,3.33558-1.13482,6.99085-2.84035,9.93544-2.37627,4.1026-5.70168,7.87025-9.33129,10.91385-.55711,.46715-1.1779,.8653-1.83242,1.18156-.19809,.09572-1.21999,.62349-1.50093,.43294Z"/></svg>